<svg width="30" height="30" viewBox="0 0 30 30" fill="none" xmlns="http://www.w3.org/2000/svg">
    <circle cx="15" cy="15" r="15" fill="#E1CDFB"/>
    <path d="M12.5814 10.414H12.9793V11.2364C12.9793 11.4563 13.1572 11.6343 13.3772 11.6343H14.9689C15.1888 11.6343 15.3668 11.4563 15.3668 11.2364V10.414H15.7647C15.9256 10.414 16.0709 10.3173 16.1323 10.1684C16.1941 10.0196 16.1599 9.84862 16.046 9.73476L14.4543 8.11657C14.2989 7.96114 14.0471 7.96114 13.8917 8.11657L12.3 9.73476C12.1861 9.84862 12.1519 10.0196 12.2137 10.1684C12.2751 10.3173 12.4205 10.414 12.5814 10.414Z" fill="#AA76ED"/>
    <path d="M17.7542 15.2155C15.996 15.2155 14.5708 16.6408 14.5708 18.3989C14.5708 20.157 15.996 21.5822 17.7542 21.5822C19.5123 21.5822 20.9375 20.157 20.9375 18.3989C20.9375 16.6408 19.5123 15.2155 17.7542 15.2155ZM18.4209 19.8309C18.3348 19.874 18.2444 19.9079 18.1519 19.9336V20.0436C18.1519 20.2633 17.9738 20.4415 17.754 20.4415C17.5343 20.4415 17.3561 20.2633 17.3561 20.0436V19.9461C17.1905 19.9044 17.036 19.8342 16.9051 19.7361C16.7293 19.6043 16.6937 19.3549 16.8256 19.179C16.9574 19.0033 17.2068 18.9676 17.3826 19.0995C17.5418 19.2188 17.8479 19.2277 18.065 19.1191C18.1523 19.0755 18.1994 19.023 18.1994 18.9957C18.1994 18.9481 18.1994 18.9408 18.1464 18.9125C18.0426 18.8571 17.859 18.823 17.6815 18.7901C17.4444 18.7461 17.1993 18.7007 16.987 18.5873C16.6768 18.4218 16.5129 18.1502 16.5129 17.802C16.5129 17.4533 16.7219 17.1489 17.0865 16.9666C17.1729 16.9234 17.2634 16.8892 17.3561 16.8635V16.7541C17.3561 16.5344 17.5343 16.3562 17.754 16.3562C17.9738 16.3562 18.1519 16.5344 18.1519 16.7541V16.8516C18.3176 16.8933 18.4721 16.9635 18.6029 17.0616C18.7787 17.1935 18.8144 17.4429 18.6825 17.6187C18.5506 17.7945 18.3013 17.8301 18.1254 17.6983C17.966 17.5787 17.6596 17.5698 17.4424 17.6784C17.3546 17.7223 17.3087 17.7738 17.3087 17.802C17.3087 17.8496 17.3087 17.8569 17.3617 17.8852C17.4655 17.9406 17.6491 17.9747 17.8266 18.0076C18.0636 18.0516 18.3087 18.097 18.5211 18.2104C18.8312 18.3759 18.9952 18.6475 18.9952 18.9957C18.9952 19.344 18.7859 19.6484 18.4209 19.8309Z" fill="#AA76ED"/>
    <path d="M10.9896 13.6239H18.1521C18.3718 13.6239 18.55 13.4457 18.55 13.226V12.8281C18.55 12.6083 18.3718 12.4301 18.1521 12.4301H10.9896C10.7698 12.4301 10.5917 12.6083 10.5917 12.8281V13.226C10.5917 13.4457 10.7698 13.6239 10.9896 13.6239Z" fill="#AA76ED"/>
    <path d="M9.79584 20.7864V21.1843C9.79584 21.404 9.974 21.5822 10.1938 21.5822H15.3913C14.9596 21.2608 14.6008 20.8553 14.3285 20.3885H10.1938C9.974 20.3885 9.79584 20.5666 9.79584 20.7864Z" fill="#AA76ED"/>
    <path d="M9.79584 16.8072V17.2051C9.79584 17.4249 9.974 17.6031 10.1938 17.6031H13.8554C13.9431 17.1731 14.1141 16.777 14.3285 16.4093H10.1938C9.974 16.4093 9.79584 16.5875 9.79584 16.8072Z" fill="#AA76ED"/>
    <path d="M9.39792 19.5926H13.9782C13.8578 19.2134 13.775 18.8175 13.775 18.3989H9.39792C9.17816 18.3989 9 18.5771 9 18.7968V19.1947C9 19.4145 9.17816 19.5926 9.39792 19.5926Z" fill="#AA76ED"/>
    <path d="M9.39792 15.6135H14.9196C15.642 14.8784 16.6446 14.4197 17.7542 14.4197H9.39792C9.17816 14.4197 9 14.5979 9 14.8176V15.2155C9 15.4353 9.17816 15.6135 9.39792 15.6135Z" fill="#AA76ED"/>
</svg>
