<svg width="30" height="30" viewBox="0 0 30 30" fill="none" xmlns="http://www.w3.org/2000/svg">
    <circle cx="15" cy="15" r="15" fill="#B6D2F9"/>
    <path d="M14.2466 15.0925C16.1447 15.0924 16.8277 13.1918 17.0065 11.6307C17.2267 9.7075 16.3173 8.26007 14.2466 8.26007C12.1762 8.26007 11.2663 9.70739 11.4867 11.6307C11.6657 13.1918 12.3484 15.0926 14.2466 15.0925Z" fill="#6D9EE1"/>
    <path d="M18.3971 15.8833C18.4582 15.8833 18.5189 15.8851 18.5792 15.8885C18.4888 15.7596 18.3843 15.646 18.2619 15.5546C17.8972 15.2824 17.4248 15.1931 17.0072 15.029C16.804 14.9491 16.6219 14.8698 16.4511 14.7795C15.8743 15.412 15.1223 15.7428 14.2465 15.7429C13.371 15.7429 12.6189 15.4121 12.0423 14.7795C11.8714 14.8698 11.6893 14.9491 11.4861 15.029C11.0685 15.1931 10.5962 15.2824 10.2314 15.5546C9.60065 16.0254 9.43763 17.0845 9.30955 17.807C9.20385 18.4033 9.13284 19.0119 9.11211 19.6177C9.09605 20.0869 9.32772 20.1527 9.72027 20.2944C10.2118 20.4716 10.7193 20.6032 11.2302 20.7111C12.2169 20.9195 13.234 21.0796 14.2466 21.0867C14.7373 21.0832 15.229 21.0437 15.7178 20.9803C15.3559 20.4559 15.1436 19.8207 15.1436 19.1368C15.1436 17.3428 16.6031 15.8833 18.3971 15.8833Z" fill="#6D9EE1"/>
    <path d="M18.3973 16.5336C16.9599 16.5336 15.7945 17.699 15.7945 19.1364C15.7945 20.5739 16.9598 21.7392 18.3973 21.7392C19.8348 21.7392 21.0002 20.5739 21.0002 19.1364C21.0001 17.6989 19.8348 16.5336 18.3973 16.5336ZM19.5361 19.583H18.8439V20.2751C18.8439 20.5218 18.644 20.7217 18.3973 20.7217C18.1507 20.7217 17.9507 20.5218 17.9507 20.2751V19.583H17.2586C17.0119 19.583 16.812 19.383 16.812 19.1364C16.812 18.8897 17.0119 18.6898 17.2586 18.6898H17.9507V17.9976C17.9507 17.751 18.1507 17.551 18.3973 17.551C18.644 17.551 18.8439 17.751 18.8439 17.9976V18.6898H19.5361C19.7827 18.6898 19.9826 18.8897 19.9826 19.1364C19.9826 19.3831 19.7827 19.583 19.5361 19.583Z" fill="#6D9EE1"/>
</svg>
